<svg t="1661689621060" class="icon" viewBox="0 0 1024 1024" version="1.1" xmlns="http://www.w3.org/2000/svg" p-id="6053" width="200" height="200"><path d="M885.333333 256H138.666667a53.393333 53.393333 0 0 0-53.333334 53.333333v576a53.393333 53.393333 0 0 0 53.333334 53.333334h746.666666a53.393333 53.393333 0 0 0 53.333334-53.333334V309.333333a53.393333 53.393333 0 0 0-53.333334-53.333333zM138.666667 298.666667h746.666666a10.666667 10.666667 0 0 1 10.666667 10.666666v385.833334l-154.953333-154.96a53.4 53.4 0 0 0-75.426667 0L447.333333 758.5l-89.62-89.626667a53.4 53.4 0 0 0-75.426666 0L128 823.166667V309.333333a10.666667 10.666667 0 0 1 10.666667-10.666666z m-10.666667 586.666666v-1.833333l184.46-184.453333a10.666667 10.666667 0 0 1 15.08 0L417.166667 788.666667l-107.333334 107.333333H138.666667a10.666667 10.666667 0 0 1-10.666667-10.666667z m757.333333 10.666667H370.166667l325.626666-325.62a10.666667 10.666667 0 0 1 15.08 0L896 755.5V885.333333a10.666667 10.666667 0 0 1-10.666667 10.666667zM128 192a21.333333 21.333333 0 0 1 21.333333-21.333333h725.333334a21.333333 21.333333 0 0 1 0 42.666666H149.333333a21.333333 21.333333 0 0 1-21.333333-21.333333z m42.666667-85.333333a21.333333 21.333333 0 0 1 21.333333-21.333334h640a21.333333 21.333333 0 0 1 0 42.666667H192a21.333333 21.333333 0 0 1-21.333333-21.333333z m149.333333 490.666666c58.813333 0 106.666667-47.853333 106.666667-106.666666s-47.853333-106.666667-106.666667-106.666667-106.666667 47.853333-106.666667 106.666667 47.853333 106.666667 106.666667 106.666666z m0-170.666666a64 64 0 1 1-64 64 64.073333 64.073333 0 0 1 64-64z" fill="#ffffff" p-id="6054"></path></svg>