<svg t="1661689170366" class="icon" viewBox="0 0 1024 1024" version="1.1" xmlns="http://www.w3.org/2000/svg" p-id="2173" width="200" height="200"><path d="M852.901888 256.671744L597.38466987 512.18896213l256.6422528 256.6422528c23.6519424 23.6519424 23.69672533 61.84850773 0.1867776 85.35845547-23.494656 23.494656-61.6923136 23.44987307-85.344256-0.20097707L512.2260992 597.34644053 256.70888107 852.86475093c-23.50230187 23.50230187-61.7447424 23.412736-85.344256-0.1867776-23.62135893-23.62135893-23.7109248-61.86379947-0.20862294-85.36610133l255.51721814-255.51721813-256.63460694-256.6356992c-23.60715947-23.60715947-23.68907947-61.84086187-0.1933312-85.33661014 23.5175936-23.5175936 61.75238827-23.4356736 85.35845547 0.17148587l256.6356992 256.6356992 255.50957227-255.50957227c23.53943893-23.53943893 61.73709653-23.4061824 85.35845546 0.2162688 23.5995136 23.59842133 23.7338624 61.79607893 0.19442347 85.33551787z m0 0" fill="#ffffff" p-id="2174"></path></svg>