<svg t="1662026738494" class="icon" viewBox="0 0 1024 1024" version="1.1" xmlns="http://www.w3.org/2000/svg" p-id="1741" width="200" height="200"><path d="M512 512.2l0.1-0.4-0.1 0.4z" p-id="1742" fill="#8a8a8a"></path><path d="M923.7 469c-0.4-0.6-0.9-1.2-1.4-1.8-41.9-49.5-89.1-103.1-139-159.8l-0.2-0.2c-50.3-57.1-102.3-116.1-149.6-172-0.6-0.7-1.2-1.3-1.8-1.9-36.3-35.9-74.6-54.1-114-54.1h-2.1c-38.3 0.6-74.1 18.3-106.6 52.6-0.2 0.2-0.4 0.4-0.6 0.7C363.2 183.3 311.3 237.9 261.1 290.8l-0.2 0.2C210.1 344.4 157.6 399.6 111 451.9l-0.1 0.1c-44.8 50.9-32 95.4-24.4 112.1 14 30.9 46.3 53.4 76.8 53.4h41.4v212.7c0 27.2 9.6 55 26.4 76.2 19.6 24.7 46.6 38.3 76 38.3h138.5c16.6 0 30-13.4 30-30V703.5H567v211.4c0 16.6 13.4 30 30 30h139.5c25 0 49.9-11.1 68.1-30.5 22.8-24.2 34.3-58.8 34.3-102.9V617.6h22.3c32 0 59.8-17 74.3-45.4 16.4-31.8 12-70.4-11.8-103.2z m-41.5 75.9c-4.2 8.2-11.6 12.7-20.9 12.7H809c-16.6 0-30 13.4-30 30v223.8c0 27.9-6.2 49.3-18 61.8-10.2 10.8-21.3 11.7-24.5 11.7H627.1V673.5c0-16.6-13.4-30-30-30H445.6c-16.6 0-30 13.4-30 30v211.4H307.2c-25 0-42.4-28.7-42.4-54.5V587.6c0-16.6-13.4-30-30-30h-71.4c-4.2 0-16.8-6.2-22.2-18.1-6-13.4-1-29.9 14.7-47.7 45.9-51.5 98-106.4 148.5-159.4l0.3-0.3C355 279 407.1 224.2 453 172.7c20.8-21.9 42.2-33.2 63.6-33.6 23.1-0.4 47.3 11.7 72 35.9C636.1 231 688 289.9 738.1 346.8l0.2 0.2c49.4 56.1 96.1 109.1 137.4 158 9.9 14.1 12.3 28.6 6.5 39.9z" p-id="1743" fill="#8a8a8a"></path></svg>